# xmcd
#
# Track frame offsets: 
#        150
#        14608
#        31838
#        47883
#        67453
#        80008
#        93975
#        111320
#        131775
#        146785
#        161718
#        182908
#        198933
#
# Disc length: 2825 seconds
#
# Revision: 3
# Processed by: cddbd v1.4PL0 Copyright (c) Steve Scherf et al.
# Submitted via: ExactAudioCopy v0.90b2
#
DISCID=c60b070d
DTITLE=Alan Jackson - Who I Am
DYEAR=1994
DGENRE=Country
TTITLE0=Summertime Blues
TTITLE1=Livin' On Love
TTITLE2=Hole In The Wall
TTITLE3=Gone Country
TTITLE4=Who I Am
TTITLE5=You Can't Give Up On Love
TTITLE6=I Don't Even Know Your Name
TTITLE7=Song For The Life
TTITLE8=Thank God For The Radio
TTITLE9=All American Country Boy
TTITLE10=Job Description
TTITLE11=If I Had You
TTITLE12=Let's Get Back To Me And You
EXTD=
EXTT0=
EXTT1=
EXTT2=
EXTT3=
EXTT4=
EXTT5=
EXTT6=
EXTT7=
EXTT8=
EXTT9=
EXTT10=
EXTT11=
EXTT12=
PLAYORDER=
